<svg xmlns="http://www.w3.org/2000/svg" viewBox="0 0 1080 305" width="1080" height="305" style="font-family: 'Inter', 'Helvetica Neue', Arial, sans-serif">
<defs>
  <marker id="arrow-primary" markerWidth="8" markerHeight="8" refX="7" refY="4" orient="auto" markerUnits="strokeWidth">
    <path d="M0,1 L7,4 L0,7" fill="none" stroke="#F06000" stroke-width="1.2" stroke-linejoin="round"/>
  </marker>
  <marker id="arrow-secondary" markerWidth="8" markerHeight="8" refX="7" refY="4" orient="auto" markerUnits="strokeWidth">
    <path d="M0,1 L7,4 L0,7" fill="none" stroke="#C0A090" stroke-width="1.2" stroke-linejoin="round"/>
  </marker>
  <pattern id="dot-grid" width="16" height="16" patternUnits="userSpaceOnUse">
    <circle cx="8" cy="8" r="0.75" fill="#E8D5C4"/>
  </pattern>
  <marker id="arrow-legend" markerWidth="4" markerHeight="4" refX="3.5" refY="2" orient="auto" markerUnits="strokeWidth">
    <path d="M0,0.3 L3.5,2 L0,3.7" fill="none" stroke="#7A5A4A" stroke-width="0.8" stroke-linejoin="round"/>
  </marker>
  <filter id="node-shadow" x="-10%" y="-10%" width="120%" height="130%">
    <feDropShadow dx="0" dy="2" stdDeviation="3" flood-color="#000" flood-opacity="0.05"/>
  </filter>
</defs>
<rect width="1080" height="305" fill="#FDF8F3"/>
<rect width="1080" height="305" fill="url(#dot-grid)"/>
<g>
  <rect x="296" y="111.5" width="168" height="150" rx="16" fill="rgba(255, 251, 245, 0.5)" stroke="#E5CBB3" stroke-width="1.5" stroke-dasharray="8 4"/>
  <text x="308" y="127.5" font-size="12" fill="#9A7A6A" font-weight="600" text-transform="uppercase" letter-spacing="0.5">Identity Gate</text>
</g>
<g>
  <rect x="536" y="111.5" width="168" height="150" rx="16" fill="rgba(255, 251, 245, 0.5)" stroke="#E5CBB3" stroke-width="1.5" stroke-dasharray="8 4"/>
  <text x="548" y="127.5" font-size="12" fill="#9A7A6A" font-weight="600" text-transform="uppercase" letter-spacing="0.5">Application Runtime</text>
</g>
<g>
  <rect x="776" y="104" width="168" height="165" rx="16" fill="rgba(255, 251, 245, 0.5)" stroke="#E5CBB3" stroke-width="1.5" stroke-dasharray="8 4"/>
  <text x="788" y="120" font-size="12" fill="#9A7A6A" font-weight="600" text-transform="uppercase" letter-spacing="0.5">Inference Runtime</text>
</g>
<line x1="250" y1="140" x2="250" y2="255" stroke="#E8D5C4" stroke-width="0.5" stroke-dasharray="6 4" opacity="0.3"/>
<line x1="490" y1="140" x2="490" y2="255" stroke="#E8D5C4" stroke-width="0.5" stroke-dasharray="6 4" opacity="0.3"/>
<line x1="730" y1="140" x2="730" y2="255" stroke="#E8D5C4" stroke-width="0.5" stroke-dasharray="6 4" opacity="0.3"/>
<path d="M200,197.5 L320,197.5" fill="none" stroke="#F06000" stroke-width="2" marker-end="url(#arrow-primary)"/>
<text x="246" y="162" font-size="11" fill="#7A5A4A" text-anchor="middle">Authenticated</text>
<text x="246" y="177" font-size="11" fill="#7A5A4A" text-anchor="middle">JPEG frame</text>
<path d="M440,197.5 L560,197.5" fill="none" stroke="#F06000" stroke-width="2" marker-end="url(#arrow-primary)"/>
<path d="M680,193.75 L800,193.75" fill="none" stroke="#F06000" stroke-width="2" marker-end="url(#arrow-primary)"/>
<g filter="url(#node-shadow)">
  <rect x="80" y="157.5" width="120" height="95" rx="12" fill="#F5F0EB" stroke="#9A8070" stroke-width="1.5"/>
  <svg x="124" y="165.5" width="32" height="32" viewBox="0 0 48 48"><circle cx="24" cy="14" r="8" fill="none" stroke="#9A8070" stroke-width="3"/><path d="M8 44c0-8.837 7.163-16 16-16s16 7.163 16 16" fill="none" stroke="#9A8070" stroke-width="3" stroke-linecap="round"/></svg>
  <text x="140" y="219.5" font-size="13" font-weight="500" fill="#4A1A0A" text-anchor="middle">Browser +</text>
  <text x="140" y="234.5" font-size="13" font-weight="500" fill="#4A1A0A" text-anchor="middle">Camera</text>
</g>
<g filter="url(#node-shadow)">
  <rect x="320" y="157.5" width="120" height="80" rx="12" fill="#F0FFF5" stroke="#30A060" stroke-width="1.5"/>
  <svg x="364" y="165.5" width="32" height="32" viewBox="0 0 16 16"><path d="M9.2 2.698a5.3 5.3 0 0 0-5.04 3.657l-.035.11H5.1l.022-.052a4.375 4.375 0 1 1 .308 3.835l-.05-.088H4.358l.06.123q.138.297.317.575A5.303 5.303 0 1 0 9.2 2.698"/><path d="M9.448 7.272 7.59 5.415l-.617.617 1.08 1.083H0l.52.872h8.63zm-.013 3.941-.618-.618 1.08-1.082H1.425l-.518-.875h10.088l.298.717z"/></svg>
  <text x="380" y="219.5" font-size="13" font-weight="500" fill="#4A1A0A" text-anchor="middle">Access</text>
</g>
<g filter="url(#node-shadow)">
  <rect x="560" y="157.5" width="120" height="80" rx="12" fill="#FFF5EB" stroke="#F08030" stroke-width="1.5"/>
  <svg x="604" y="165.5" width="32" height="32" viewBox="0 0 48 49"><path d="m18.63 37.418-9.645-12.9 9.592-12.533-1.852-2.527L5.917 23.595l-.015 1.808 10.86 14.542z"/><path d="M21.997 6.503h-3.712l13.387 18.3-13.072 17.7h3.735L35.4 24.81z"/><path d="M29.175 6.503h-3.758l13.598 18.082-13.598 17.918h3.765l12.908-17.01v-1.808z"/></svg>
  <text x="620" y="219.5" font-size="13" font-weight="500" fill="#4A1A0A" text-anchor="middle">Astro Worker</text>
</g>
<g filter="url(#node-shadow)">
  <rect x="800" y="150" width="120" height="95" rx="12" fill="#F5F0FF" stroke="#8A50E0" stroke-width="1.5"/>
  <svg x="844" y="158" width="32" height="32" viewBox="0 0 20 20"><path d="M10.72 1.5H9.265v3.198l1.455.004zM7.36 3.347l1.516 1.517-1.032 1.025-1.513-1.513 1.03-1.029ZM4.485 6.28h3.202l-.005 1.455H4.485zm1.848 3.36 1.515-1.516 1.026 1.032-1.512 1.512-1.03-1.029Zm2.932 2.875V9.313l1.455.005v3.197zm3.36-1.845-1.517-1.517 1.032-1.026 1.514 1.514zM15.5 7.735h-3.202l.005-1.455H15.5zm-1.847-3.359-1.516 1.516-1.025-1.032 1.513-1.513 1.028 1.03ZM2 1.829v.82h-.822v1.315H2v.821h1.314v-.82h.821V2.65h-.821v-.821zm0 12.842v-1.5H.5v-1.314H2v-1.499h1.314v1.499h1.5v1.314h-1.5v1.5z"/></svg>
  <text x="860" y="212" font-size="13" font-weight="500" fill="#4A1A0A" text-anchor="middle">Workers AI</text>
  <text x="860" y="227" font-size="13" font-weight="500" fill="#4A1A0A" text-anchor="middle">Models</text>
</g>
<text x="60" y="88" font-size="24" font-weight="700" fill="#4A1A0A">Workers AI Video Detection Demo</text>
</svg>
